<?xml version="1.0" encoding="utf-8"?>
<!-- Generator: Adobe Illustrator 27.3.1, SVG Export Plug-In . SVG Version: 6.00 Build 0)  -->
<svg version="1.1" xmlns="http://www.w3.org/2000/svg" xmlns:xlink="http://www.w3.org/1999/xlink" x="0px" y="0px"
	 viewBox="0 0 570 352.1" style="enable-background:new 0 0 570 352.1;" xml:space="preserve">
<style type="text/css">
	.st0{fill:#12100B;}
	.st1{fill:url(#XMLID_00000139977033209745468720000012421241577356893872_);}
	.st2{fill:#E32285;}
	.st3{fill:#FFFFFF;}
	.st4{fill:url(#XMLID_00000073721198627536203880000001029779801179581615_);}
	.st5{fill:url(#XMLID_00000116920198944861721980000008609966649199990685_);}
	.st6{fill:url(#XMLID_00000012469410463258277310000014987148970825408406_);}
	.st7{display:none;}
	.st8{display:inline;}
	.st9{fill:url(#SVGID_1_);}
	.st10{fill:#E6007E;}
	.st11{fill:#110C08;}
	.st12{display:inline;fill:url(#SVGID_00000050664621427842210250000014700630113646079385_);}
	.st13{display:inline;opacity:0.5;fill:#009FE3;}
	.st14{display:inline;fill:url(#SVGID_00000062890409233097164440000012737929608085344643_);}
	.st15{display:inline;opacity:0.33;fill:#E6007E;}
	.st16{display:none;opacity:0.33;fill:#E6007E;}
</style>
<g id="Layer_5">
	<g id="Layer_4">
	</g>
	<g id="XMLID_00000133498146130891706230000011797126123705067711_">
		<path id="XMLID_00000134224304255775650230000012760245189048158119_" d="M68.3,261.9c12.2,0,20.4,9.3,20.4,21.6
			c0,12.3-8.2,21.6-20.4,21.6c-12.7,0-20.4-9.8-20.4-21.6C48,271.7,55.6,261.9,68.3,261.9 M66.5,319.1c9.6,0,16.5-3.9,21.2-9.9v8.1
			h14.7v-67.5H87.7v8.2c-4.6-6-11.6-9.9-21.2-9.9c-18.9,0-33.7,14.9-33.7,35.5C32.8,304.2,47.7,319.1,66.5,319.1"/>
		<path id="XMLID_00000053531907247735763520000015792534648434015877_" d="M177.2,260.1c-4.6-7.5-13-12-23.3-12
			c-6.9,0-15.3,2-20.7,10v-8.2h-14.6v67.5h14.8v-37.4c0-11.6,8-17.8,17.5-17.8c9.9,0,15.7,6.3,15.7,17.7v37.5h14.8v-37.4
			c0-11.6,8-17.8,17.5-17.8c9.9,0,15.7,6.3,15.7,17.7v37.5h14.8v-42.4c0-15.8-11.3-26.8-27.4-26.8
			C193.5,248.1,183.1,250.5,177.2,260.1"/>
		<path id="XMLID_00000091712914800241527530000005798058172023517318_" d="M361.2,305.2c-12,0-21.1-8.9-21.1-21.6
			c0-12.7,9.1-21.6,21.1-21.6c12,0,21.2,8.9,21.2,21.6C382.4,296.3,373.2,305.2,361.2,305.2 M361.2,248.1
			c-20.8,0-36.3,15.3-36.3,35.5c0,20.2,15.4,35.5,36.3,35.5c20.8,0,36.3-15.3,36.3-35.5C397.5,263.3,382,248.1,361.2,248.1"/>
		<path id="XMLID_00000180337031519908505300000014211218167033048216_" d="M442.9,261.9c6.5,0,11.5,2.5,16.2,7l9.4-10.1
			c-6-7.1-15.1-10.8-25.2-10.8c-21.5,0-35.5,15.3-35.5,35.5c0,20.2,14,35.5,35.5,35.5c10.1,0,19.1-3.7,25.2-10.8l-9.1-10.1
			c-4.3,4-10.1,7-16.5,7c-11.3,0-19.9-8.9-19.9-21.6C423,270.8,431.6,261.9,442.9,261.9"/>
		<path id="XMLID_00000044899475719540013610000011003707275387367573_" d="M513.8,277l-7-1.1c-6.2-0.9-11.1-2.3-11.1-7
			c0-4.8,4.7-8,12.7-8c8.4,0,16.8,3.2,20.8,5.8l6.3-11.5c-7-4.5-16.8-7.1-27.3-7.1c-17.2,0-27.9,8.2-27.9,21.6
			c0,10.8,8,17.7,22.9,19.8l7,0.9c8,1.1,11.7,3.7,11.7,7.5c0,5.1-5.3,8.2-15.4,8.2c-11,0-17.4-3.2-22.3-6.9l-6.8,11.1
			c9.9,7.3,22,8.7,28.9,8.7c19.4,0,30.7-9.1,30.7-22C537.3,285.4,528.5,279.1,513.8,277"/>
		<path id="XMLID_00000003075285653084937050000001616072998131220392_" d="M277.3,305.2c-12.7,0-20.4-9.8-20.4-21.6
			c0-3.7,0.7-7.2,2.2-10.3c3.1-6.7,9.5-11.4,18.2-11.4c12.2,0,20.4,9.3,20.4,21.6c0,10.7-6.1,19-15.6,21.1
			C280.5,305,278.9,305.2,277.3,305.2 M296.7,309.2v8.1h14.7h0v-89.4l-14.6,5.2h-0.2V258c-4.7-6-11.6-9.9-21.2-9.9
			c-18.9,0-33.7,14.9-33.7,35.5v0v0c0,20.6,14.9,35.5,33.7,35.5c0,0,0,0,0,0s0,0,0,0C285.1,319.1,292.1,315.2,296.7,309.2"/>
	</g>
	<g>
		
			<linearGradient id="XMLID_00000175312849799508437550000011319462457185733002_" gradientUnits="userSpaceOnUse" x1="187.5515" y1="118.4674" x2="410.6704" y2="118.4674">
			<stop  offset="2.000000e-02" style="stop-color:#FAB51D"/>
			<stop  offset="0.1" style="stop-color:#F7A824"/>
			<stop  offset="0.26" style="stop-color:#F18735"/>
			<stop  offset="0.47" style="stop-color:#EA5657"/>
			<stop  offset="0.73" style="stop-color:#E71C83"/>
			<stop  offset="0.77" style="stop-color:#E32285"/>
		</linearGradient>
		
			<path id="XMLID_00000166668536663169182150000004756853419883191705_" style="fill:url(#XMLID_00000175312849799508437550000011319462457185733002_);" d="
			M307.9,34.3h-98.8l9.7,33.6h89c9.3,0,16.8,7.5,16.8,16.8v16.8h-84.1c-27.8,0-50.5,22.6-50.5,50.5s22.6,50.5,50.5,50.5h67.3
			c27.8,0,50.5-22.6,50.5-50.5v-33.7v-16.8V84.8C358.4,57,335.8,34.3,307.9,34.3z M324.8,152.1c0,9.3-7.5,16.8-16.8,16.8h-67.3
			c-9.3,0-16.8-7.6-16.8-16.8c0-9.3,7.6-16.8,16.8-16.8h84.1V152.1z"/>
		<polygon id="XMLID_00000073697813048874421010000016994145491713281159_" class="st2" points="406.6,101.6 375.9,101.6 
			375.9,135.3 416.3,135.3 		"/>
	</g>
</g>
<g id="Layer_7" class="st7">
</g>
<g id="Layer_8" class="st7">
</g>
<g id="Layer_6" class="st7">
</g>
<g id="Layer_9" class="st7">
</g>
<g id="Guides" class="st7">
</g>
<g id="Guides_copy">
</g>
</svg>
